# xmcd
#
# Track frame offsets: 
#        150
#        11738
#        22909
#        37049
#        46643
#        60171
#        70302
#        86047
#        98870
#        113309
#        125330
#        139030
#        151951
#        166072
#        177624
#        190057
#        200612
#        214194
#
# Disc length: 3050 seconds
#
# Revision: 0
# Processed by: cddbd v1.4PL0 Copyright (c) Steve Scherf et al.
# Submitted via: ExactAudioCopy v0.90a11
#
DISCID=e80be812
DTITLE=Vern Gosdin - The Voice
DYEAR=1900
DGENRE=
TTITLE0=Don't Ever Leave Me Again
TTITLE1=Your Bedroom Eyes
TTITLE2=Friday Night Feeling
TTITLE3=Ain't It Been Love
TTITLE4=She's Just A Place To Fall
TTITLE5=Damn The Fever
TTITLE6=It Might Have Been
TTITLE7=When Love Takes Over Your Life
TTITLE8=Singer Of Sad Songs
TTITLE9=Tonight I'm Feeling You All Over Again
TTITLE10=Just Give Me What You Think Is Fair
TTITLE11=Too Long Gone
TTITLE12=It's Beginning To Look Like The End
TTITLE13=Lady
TTITLE14=My Baby Sings The Blues
TTITLE15=Love Is Like An Echo
TTITLE16=It's Not Over (If I'm Not Over You)
TTITLE17=Cowboys Are Common As Sin
EXTD=
EXTT0=
EXTT1=
EXTT2=
EXTT3=
EXTT4=
EXTT5=
EXTT6=
EXTT7=
EXTT8=
EXTT9=
EXTT10=
EXTT11=
EXTT12=
EXTT13=
EXTT14=
EXTT15=
EXTT16=
EXTT17=
PLAYORDER=
